<svg xmlns="http://www.w3.org/2000/svg" version="1.1" xmlns:xlink="http://www.w3.org/1999/xlink" xmlns:svgjs="http://svgjs.dev/svgjs" width="1000" height="1000" viewBox="0 0 1000 1000"><rect width="1000" height="1000" fill="#31c48d"></rect><g transform="matrix(0.7,0,0,0.7,149.57575757575756,282.1265587044535)"><svg viewBox="0 0 396 247" data-background-color="#31c48d" preserveAspectRatio="xMidYMid meet" height="623" width="1000" xmlns="http://www.w3.org/2000/svg" xmlns:xlink="http://www.w3.org/1999/xlink"><g id="tight-bounds" transform="matrix(1,0,0,1,0.2400000000000091,-0.09999999999999432)"><svg viewBox="0 0 395.52 247.2" height="247.2" width="395.52"><g><svg></svg></g><g><svg viewBox="0 0 395.52 247.2" height="247.2" width="395.52"><g transform="matrix(1,0,0,1,75.54432,91.8789860920666)"><svg viewBox="0 0 244.43135999999998 63.442027815866794" height="63.442027815866794" width="244.43135999999998"><g><svg viewBox="0 0 244.43135999999998 63.442027815866794" height="63.442027815866794" width="244.43135999999998"><g><svg viewBox="0 0 244.43135999999998 63.442027815866794" height="63.442027815866794" width="244.43135999999998"><g><svg viewBox="0 0 244.43135999999998 63.442027815866794" height="63.442027815866794" width="244.43135999999998"><g><svg viewBox="0 0 244.43135999999998 63.442027815866794" height="63.442027815866794" width="244.43135999999998"><g><svg viewBox="0 0 244.43135999999998 63.442027815866794" height="63.442027815866794" width="244.43135999999998"><g transform="matrix(1,0,0,1,0,0)"><svg width="244.43135999999998" viewBox="0.550000011920929 -39.20000076293945 153.13999938964844 39.75" height="63.442027815866794" data-palette-color="#c7efe0"><path d="M12.4-21.35L12-21.35 12-7.85Q12-4.7 14.45-4.7L14.45-4.7Q17.15-4.7 19.45-7.15L19.45-7.15Q20.15-7.15 20.63-6.58 21.1-6 21.1-5.05L21.1-5.05Q21.1-3 18.6-1.23 16.1 0.55 12.43 0.55 8.75 0.55 6.45-1.3 4.15-3.15 4.15-6.95L4.15-6.95 4.15-21.35Q2.35-21.4 1.45-22.23 0.55-23.05 0.55-24.3 0.55-25.55 1.6-26.3L1.6-26.3Q2.8-26.15 4.15-26.15L4.15-26.15 4.15-27.65Q4.15-30.25 2.45-31.15L2.45-31.15Q4.35-33.3 6.98-33.3 9.6-33.3 10.8-31.85 12-30.4 12-27.35L12-27.35 12-26.15 19.55-26.15Q19.9-25.75 19.9-25.15L19.9-25.15Q19.9-23.6 18.23-22.48 16.55-21.35 12.4-21.35L12.4-21.35ZM36.3-22.9L36.3-22.9Q32-22.9 32-15.4L32-15.4Q32-14.3 32.1-13.1L32.1-13.1Q32.7-3.25 37.6-3.25L37.6-3.25Q41.9-3.25 41.9-10.8L41.9-10.8Q41.9-11.85 41.8-13.1L41.8-13.1Q41.1-22.9 36.3-22.9ZM27.65-23.18Q31.2-26.7 36.95-26.7 42.7-26.7 46.25-23.18 49.8-19.65 49.8-13.1 49.8-6.55 46.22-3 42.65 0.55 36.92 0.55 31.2 0.55 27.65-3 24.1-6.55 24.1-13.1 24.1-19.65 27.65-23.18ZM66.8-22.9L66.8-22.9Q62.5-22.9 62.5-15.4L62.5-15.4Q62.5-14.3 62.6-13.1L62.6-13.1Q63.2-3.25 68.1-3.25L68.1-3.25Q72.4-3.25 72.4-10.8L72.4-10.8Q72.4-11.85 72.3-13.1L72.3-13.1Q71.6-22.9 66.8-22.9ZM58.15-23.18Q61.7-26.7 67.45-26.7 73.2-26.7 76.75-23.18 80.3-19.65 80.3-13.1 80.3-6.55 76.72-3 73.15 0.55 67.42 0.55 61.7 0.55 58.15-3 54.6-6.55 54.6-13.1 54.6-19.65 58.15-23.18ZM97.29-22.9L97.29-22.9Q92.99-22.9 92.99-15.4L92.99-15.4Q92.99-14.3 93.09-13.1L93.09-13.1Q93.69-3.25 98.59-3.25L98.59-3.25Q102.89-3.25 102.89-10.8L102.89-10.8Q102.89-11.85 102.79-13.1L102.79-13.1Q102.09-22.9 97.29-22.9ZM88.64-23.18Q92.19-26.7 97.94-26.7 103.69-26.7 107.24-23.18 110.79-19.65 110.79-13.1 110.79-6.55 107.22-3 103.64 0.55 97.92 0.55 92.19 0.55 88.64-3 85.09-6.55 85.09-13.1 85.09-19.65 88.64-23.18ZM124.94-33.25L124.94-33.25 124.94-5.15Q124.94-2.45 126.59-1.6L126.59-1.6Q124.69 0.55 121.99 0.55L121.99 0.55Q117.09 0.55 117.09-5.4L117.09-5.4 117.09-33.55Q117.09-36.05 115.39-37.1L115.39-37.1Q117.29-39.2 119.99-39.2L119.99-39.2Q124.94-39.2 124.94-33.25ZM152.49-21.05L152.49-21.05Q152.49-19.4 151.54-18.5 150.59-17.6 148.84-17.6 147.09-17.6 145.49-18.8L145.49-18.8Q146.14-20.85 144.89-21.9L144.89-21.9Q144.09-22.55 142.71-22.55 141.34-22.55 140.51-21.98 139.69-21.4 139.69-20.25 139.69-19.1 141.14-18.07 142.59-17.05 144.64-16.18 146.69-15.3 148.74-14.28 150.79-13.25 152.24-11.6 153.69-9.95 153.69-7.85L153.69-7.85Q153.69-4.15 150.24-1.8 146.79 0.55 141.96 0.55 137.14 0.55 133.89-1.2L133.89-1.2Q130.59-3.05 130.59-5.8L130.59-5.8Q130.59-7.45 131.84-8.53 133.09-9.6 134.84-9.6L134.84-9.6Q137.59-9.6 138.74-7.9L138.74-7.9Q137.89-7.2 137.89-6.05 137.89-4.9 138.99-4.28 140.09-3.65 141.89-3.65 143.69-3.65 144.76-4.38 145.84-5.1 145.84-6.25 145.84-7.4 144.39-8.4 142.94-9.4 140.89-10.3 138.84-11.2 136.79-12.25 134.74-13.3 133.29-14.98 131.84-16.65 131.84-18.7L131.84-18.7Q131.84-21.95 134.99-24.33 138.14-26.7 142.46-26.7 146.79-26.7 149.64-25.1 152.49-23.5 152.49-21.05Z" opacity="1" transform="matrix(1,0,0,1,0,0)" fill="#c7efe0" class="undefined-text-0" data-fill-palette-color="primary" id="text-0"></path></svg></g></svg></g></svg></g></svg></g><g></g></svg></g></svg></g></svg></g><g><path d="M84.818 76.902A122.216 122.216 0 0 1 310.702 76.902L304.981 76.902A116.494 116.494 0 0 0 90.539 76.902L84.818 76.902M84.818 170.298A122.216 122.216 0 0 0 310.702 170.298L304.981 170.298A116.494 116.494 0 0 1 90.539 170.298L84.818 170.298" fill="#c7efe0" stroke="transparent" data-fill-palette-color="tertiary"></path></g></svg></g><defs></defs></svg><rect width="395.52" height="247.2" fill="none" stroke="none" visibility="hidden"></rect></g></svg></g></svg>